<mxfile host="65bd71144e">
    <diagram id="0CCYS7efA8p2tOmXGx0z" name="Page-1">
        <mxGraphModel dx="680" dy="377" grid="1" gridSize="10" guides="1" tooltips="1" connect="1" arrows="1" fold="1" page="1" pageScale="1" pageWidth="827" pageHeight="1169" math="0" shadow="0">
            <root>
                <mxCell id="0"/>
                <mxCell id="1" parent="0"/>
                <mxCell id="42" value="" style="group" vertex="1" connectable="0" parent="1">
                    <mxGeometry x="151" y="60" width="630" height="60" as="geometry"/>
                </mxCell>
                <mxCell id="41" value="[16]" style="text;html=1;strokeColor=none;fillColor=none;align=center;verticalAlign=middle;whiteSpace=wrap;rounded=0;" vertex="1" parent="42">
                    <mxGeometry x="480" width="60" height="30" as="geometry"/>
                </mxCell>
                <mxCell id="2" value="1" style="whiteSpace=wrap;html=1;aspect=fixed;" vertex="1" parent="42">
                    <mxGeometry x="15" y="30" width="30" height="30" as="geometry"/>
                </mxCell>
                <mxCell id="3" value="[0]" style="text;html=1;strokeColor=none;fillColor=none;align=center;verticalAlign=middle;whiteSpace=wrap;rounded=0;" vertex="1" parent="42">
                    <mxGeometry width="60" height="30" as="geometry"/>
                </mxCell>
                <mxCell id="4" value="2" style="whiteSpace=wrap;html=1;aspect=fixed;" vertex="1" parent="42">
                    <mxGeometry x="45" y="30" width="30" height="30" as="geometry"/>
                </mxCell>
                <mxCell id="5" value="[1]" style="text;html=1;strokeColor=none;fillColor=none;align=center;verticalAlign=middle;whiteSpace=wrap;rounded=0;" vertex="1" parent="42">
                    <mxGeometry x="30" width="60" height="30" as="geometry"/>
                </mxCell>
                <mxCell id="6" value="3" style="whiteSpace=wrap;html=1;aspect=fixed;" vertex="1" parent="42">
                    <mxGeometry x="75" y="30" width="30" height="30" as="geometry"/>
                </mxCell>
                <mxCell id="7" value="[2]" style="text;html=1;strokeColor=none;fillColor=none;align=center;verticalAlign=middle;whiteSpace=wrap;rounded=0;" vertex="1" parent="42">
                    <mxGeometry x="60" width="60" height="30" as="geometry"/>
                </mxCell>
                <mxCell id="8" value="4" style="whiteSpace=wrap;html=1;aspect=fixed;" vertex="1" parent="42">
                    <mxGeometry x="105" y="30" width="30" height="30" as="geometry"/>
                </mxCell>
                <mxCell id="9" value="[3]" style="text;html=1;strokeColor=none;fillColor=none;align=center;verticalAlign=middle;whiteSpace=wrap;rounded=0;" vertex="1" parent="42">
                    <mxGeometry x="90" width="60" height="30" as="geometry"/>
                </mxCell>
                <mxCell id="10" value="5" style="whiteSpace=wrap;html=1;aspect=fixed;" vertex="1" parent="42">
                    <mxGeometry x="135" y="30" width="30" height="30" as="geometry"/>
                </mxCell>
                <mxCell id="11" value="[4]" style="text;html=1;strokeColor=none;fillColor=none;align=center;verticalAlign=middle;whiteSpace=wrap;rounded=0;" vertex="1" parent="42">
                    <mxGeometry x="120" width="60" height="30" as="geometry"/>
                </mxCell>
                <mxCell id="12" value="6" style="whiteSpace=wrap;html=1;aspect=fixed;" vertex="1" parent="42">
                    <mxGeometry x="165" y="30" width="30" height="30" as="geometry"/>
                </mxCell>
                <mxCell id="13" value="[5]" style="text;html=1;strokeColor=none;fillColor=none;align=center;verticalAlign=middle;whiteSpace=wrap;rounded=0;" vertex="1" parent="42">
                    <mxGeometry x="150" width="60" height="30" as="geometry"/>
                </mxCell>
                <mxCell id="14" value="7" style="whiteSpace=wrap;html=1;aspect=fixed;" vertex="1" parent="42">
                    <mxGeometry x="195" y="30" width="30" height="30" as="geometry"/>
                </mxCell>
                <mxCell id="15" value="[6]" style="text;html=1;strokeColor=none;fillColor=none;align=center;verticalAlign=middle;whiteSpace=wrap;rounded=0;" vertex="1" parent="42">
                    <mxGeometry x="180" width="60" height="30" as="geometry"/>
                </mxCell>
                <mxCell id="16" value="8" style="whiteSpace=wrap;html=1;aspect=fixed;" vertex="1" parent="42">
                    <mxGeometry x="225" y="30" width="30" height="30" as="geometry"/>
                </mxCell>
                <mxCell id="17" value="[7]" style="text;html=1;strokeColor=none;fillColor=none;align=center;verticalAlign=middle;whiteSpace=wrap;rounded=0;" vertex="1" parent="42">
                    <mxGeometry x="210" width="60" height="30" as="geometry"/>
                </mxCell>
                <mxCell id="18" value="9" style="whiteSpace=wrap;html=1;aspect=fixed;" vertex="1" parent="42">
                    <mxGeometry x="255" y="30" width="30" height="30" as="geometry"/>
                </mxCell>
                <mxCell id="19" value="[8]" style="text;html=1;strokeColor=none;fillColor=none;align=center;verticalAlign=middle;whiteSpace=wrap;rounded=0;" vertex="1" parent="42">
                    <mxGeometry x="240" width="60" height="30" as="geometry"/>
                </mxCell>
                <mxCell id="20" value="10" style="whiteSpace=wrap;html=1;aspect=fixed;" vertex="1" parent="42">
                    <mxGeometry x="285" y="30" width="30" height="30" as="geometry"/>
                </mxCell>
                <mxCell id="21" value="[9]" style="text;html=1;strokeColor=none;fillColor=none;align=center;verticalAlign=middle;whiteSpace=wrap;rounded=0;" vertex="1" parent="42">
                    <mxGeometry x="270" width="60" height="30" as="geometry"/>
                </mxCell>
                <mxCell id="22" value="11" style="whiteSpace=wrap;html=1;aspect=fixed;" vertex="1" parent="42">
                    <mxGeometry x="315" y="30" width="30" height="30" as="geometry"/>
                </mxCell>
                <mxCell id="23" value="[10]" style="text;html=1;strokeColor=none;fillColor=none;align=center;verticalAlign=middle;whiteSpace=wrap;rounded=0;" vertex="1" parent="42">
                    <mxGeometry x="300" width="60" height="30" as="geometry"/>
                </mxCell>
                <mxCell id="24" value="12" style="whiteSpace=wrap;html=1;aspect=fixed;" vertex="1" parent="42">
                    <mxGeometry x="345" y="30" width="30" height="30" as="geometry"/>
                </mxCell>
                <mxCell id="25" value="[11]" style="text;html=1;strokeColor=none;fillColor=none;align=center;verticalAlign=middle;whiteSpace=wrap;rounded=0;" vertex="1" parent="42">
                    <mxGeometry x="330" width="60" height="30" as="geometry"/>
                </mxCell>
                <mxCell id="26" value="13" style="whiteSpace=wrap;html=1;aspect=fixed;" vertex="1" parent="42">
                    <mxGeometry x="375" y="30" width="30" height="30" as="geometry"/>
                </mxCell>
                <mxCell id="27" value="[12]" style="text;html=1;strokeColor=none;fillColor=none;align=center;verticalAlign=middle;whiteSpace=wrap;rounded=0;" vertex="1" parent="42">
                    <mxGeometry x="360" width="60" height="30" as="geometry"/>
                </mxCell>
                <mxCell id="28" value="14" style="whiteSpace=wrap;html=1;aspect=fixed;" vertex="1" parent="42">
                    <mxGeometry x="405" y="30" width="30" height="30" as="geometry"/>
                </mxCell>
                <mxCell id="29" value="[13]" style="text;html=1;strokeColor=none;fillColor=none;align=center;verticalAlign=middle;whiteSpace=wrap;rounded=0;" vertex="1" parent="42">
                    <mxGeometry x="390" width="60" height="30" as="geometry"/>
                </mxCell>
                <mxCell id="30" value="15" style="whiteSpace=wrap;html=1;aspect=fixed;" vertex="1" parent="42">
                    <mxGeometry x="435" y="30" width="30" height="30" as="geometry"/>
                </mxCell>
                <mxCell id="31" value="[14]" style="text;html=1;strokeColor=none;fillColor=none;align=center;verticalAlign=middle;whiteSpace=wrap;rounded=0;" vertex="1" parent="42">
                    <mxGeometry x="420" width="60" height="30" as="geometry"/>
                </mxCell>
                <mxCell id="32" value="16" style="whiteSpace=wrap;html=1;aspect=fixed;" vertex="1" parent="42">
                    <mxGeometry x="465" y="30" width="30" height="30" as="geometry"/>
                </mxCell>
                <mxCell id="33" value="[15]" style="text;html=1;strokeColor=none;fillColor=none;align=center;verticalAlign=middle;whiteSpace=wrap;rounded=0;" vertex="1" parent="42">
                    <mxGeometry x="450" width="60" height="30" as="geometry"/>
                </mxCell>
                <mxCell id="34" value="17" style="whiteSpace=wrap;html=1;aspect=fixed;" vertex="1" parent="42">
                    <mxGeometry x="495" y="30" width="30" height="30" as="geometry"/>
                </mxCell>
                <mxCell id="35" value="18" style="whiteSpace=wrap;html=1;aspect=fixed;" vertex="1" parent="42">
                    <mxGeometry x="525" y="30" width="30" height="30" as="geometry"/>
                </mxCell>
                <mxCell id="36" value="[17]" style="text;html=1;strokeColor=none;fillColor=none;align=center;verticalAlign=middle;whiteSpace=wrap;rounded=0;" vertex="1" parent="42">
                    <mxGeometry x="510" width="60" height="30" as="geometry"/>
                </mxCell>
                <mxCell id="37" value="19" style="whiteSpace=wrap;html=1;aspect=fixed;" vertex="1" parent="42">
                    <mxGeometry x="555" y="30" width="30" height="30" as="geometry"/>
                </mxCell>
                <mxCell id="38" value="[18]" style="text;html=1;strokeColor=none;fillColor=none;align=center;verticalAlign=middle;whiteSpace=wrap;rounded=0;" vertex="1" parent="42">
                    <mxGeometry x="540" width="60" height="30" as="geometry"/>
                </mxCell>
                <mxCell id="39" value="20" style="whiteSpace=wrap;html=1;aspect=fixed;" vertex="1" parent="42">
                    <mxGeometry x="585" y="30" width="30" height="30" as="geometry"/>
                </mxCell>
                <mxCell id="40" value="[19]" style="text;html=1;strokeColor=none;fillColor=none;align=center;verticalAlign=middle;whiteSpace=wrap;rounded=0;" vertex="1" parent="42">
                    <mxGeometry x="570" width="60" height="30" as="geometry"/>
                </mxCell>
                <mxCell id="44" style="edgeStyle=none;html=1;entryX=0;entryY=0.5;entryDx=0;entryDy=0;" edge="1" parent="1" source="43" target="2">
                    <mxGeometry relative="1" as="geometry"/>
                </mxCell>
                <mxCell id="43" value="example_numbers" style="text;html=1;strokeColor=none;fillColor=none;align=center;verticalAlign=middle;whiteSpace=wrap;rounded=0;" vertex="1" parent="1">
                    <mxGeometry x="10" y="90" width="110" height="30" as="geometry"/>
                </mxCell>
            </root>
        </mxGraphModel>
    </diagram>
</mxfile>